<svg xmlns="http://www.w3.org/2000/svg" width="256" height="256" viewBox="0 0 240 240" fill="none" role="img"
  aria-labelledby="logoTitle logoDesc">
  <title id="logoTitle">Termiz Aqlli Shahar logotipi</title>
  <desc id="logoDesc">Termiz aqlli shahar uchun zamonaviy logotip: qal'a darvozasi, daryo va raqamli tarmoq elementlari.
  </desc>

  <defs>
    <linearGradient id="bgGlow" x1="20" y1="18" x2="220" y2="240" gradientUnits="userSpaceOnUse">
      <stop offset="0" stop-color="#0C7A5A" />
      <stop offset="1" stop-color="#0B4F88" />
    </linearGradient>
    <linearGradient id="gateFill" x1="63" y1="72" x2="177" y2="188" gradientUnits="userSpaceOnUse">
      <stop offset="0" stop-color="#F6C15A" />
      <stop offset="1" stop-color="#E8942F" />
    </linearGradient>
    <linearGradient id="river" x1="50" y1="182" x2="190" y2="205" gradientUnits="userSpaceOnUse">
      <stop offset="0" stop-color="#5EC8FF" />
      <stop offset="1" stop-color="#0E8BD0" />
    </linearGradient>
  </defs>

  <!-- Logo part (icon) -->
  <g id="logo-part">
    <rect x="20" y="20" width="200" height="200" rx="54" fill="url(#bgGlow)" />
    <rect x="29" y="29" width="182" height="182" rx="46" stroke="#BCE9D8" stroke-opacity="0.32" stroke-width="2" />

    <circle cx="160" cy="72" r="15" fill="#FFD36B" />

    <path d="M56 150L85 118L102 132L124 99L142 121L165 88L185 116V150H56Z" fill="#E7F9F2" fill-opacity="0.95" />

    <path d="M70 175V132C70 120.954 78.954 112 90 112H150C161.046 112 170 120.954 170 132V175H70Z"
      fill="url(#gateFill)" />

    <path d="M98 175V145C98 132.85 107.85 123 120 123C132.15 123 142 132.85 142 145V175H98Z" fill="#0D4E87" />
    <path d="M108 175V154C108 147.373 113.373 142 120 142C126.627 142 132 147.373 132 154V175H108Z" fill="#E8F3FF" />

    <path d="M66 185C81.5 177.5 96.5 177.5 112 185C127.5 192.5 142.5 192.5 158 185C168.5 179.8 178.5 179.4 189 185"
      stroke="url(#river)" stroke-width="8" stroke-linecap="round" />

    <circle cx="73" cy="92" r="6" fill="#E7F9F2" />
    <circle cx="112" cy="78" r="5" fill="#E7F9F2" />
    <circle cx="146" cy="90" r="5" fill="#E7F9F2" />
    <circle cx="185" cy="82" r="6" fill="#E7F9F2" />

    <path d="M79 92L106 80" stroke="#D8FFF3" stroke-width="2.5" stroke-linecap="round" />
    <path d="M117 78L141 88" stroke="#D8FFF3" stroke-width="2.5" stroke-linecap="round" />
    <path d="M151 90L179 83" stroke="#D8FFF3" stroke-width="2.5" stroke-linecap="round" />
  </g>

</svg>